# xmcd CD database file
#
# Track frame offsets:
#	183
#	14318
#	28553
#	43715
#	59165
#	73835
#	88900
#	104523
#	120135
#	133643
#	147520
#	162923
#	178185
#	193425
#
# Disc length: 2766 seconds
#
# Revision: 0
# Processed by: cddbd v1.5.1PL0 Copyright (c) Steve Scherf et al.
# Submitted via: CDex 1.51
#
DISCID=d40acc0e
DTITLE=Sexteto Habanero - Son Cubano
DYEAR=1991
DGENRE=Salsa
TTITLE0=Criollo Haragan
TTITLE1=No trago
TTITLE2=Guantanamo
TTITLE3=Ahora si
TTITLE4=No me maltrates nena
TTITLE5=Nieve de mi vida
TTITLE6=Ofelia mia
TTITLE7=Sexteto habanero
TTITLE8=Pa' canton
TTITLE9=El florero
TTITLE10=Alma guajira
TTITLE11=No juegues con los santos
TTITLE12=Romerillo
TTITLE13=Vi una vez
EXTD=YEAR: 1991
EXTT0=
EXTT1=
EXTT2=
EXTT3=
EXTT4=
EXTT5=
EXTT6=
EXTT7=
EXTT8=
EXTT9=
EXTT10=
EXTT11=
EXTT12=
EXTT13=
PLAYORDER=
